<svg xmlns="http://www.w3.org/2000/svg" width="1200" height="630" viewBox="0 0 1200 630" role="img" aria-labelledby="title desc">
  <title id="title">ConnectPath managed IT and connectivity</title>
  <desc id="desc">ConnectPath helps Western North Carolina businesses keep IT under control and work moving.</desc>
  <defs>
    <pattern id="grid" width="32" height="32" patternUnits="userSpaceOnUse">
      <path d="M32 0H0V32" fill="none" stroke="#111a2b" stroke-opacity=".055"/>
    </pattern>
    <g id="mark">
      <path fill="#111a2b" d="M10 10h57v15H29v46h38v15H10z"/>
      <path fill="#3157f6" d="M35 76V50h29V38l22 18-22 18V63H50v13z"/>
      <rect width="10" height="10" x="30" y="45" fill="#c8f45a"/>
    </g>
  </defs>

  <path fill="#f6f1e7" d="M0 0h1200v630H0z"/>
  <path fill="url(#grid)" d="M0 0h1200v630H0z"/>
  <path fill="#3157f6" d="M1188 0h12v630h-12zM0 618h1200v12H0z"/>

  <g transform="translate(54 32) scale(.58)"><use href="#mark"/></g>
  <text x="120" y="67" fill="#111a2b" font-family="Arial, Helvetica, sans-serif" font-size="28" font-weight="800" letter-spacing="-1">Connect<tspan fill="#3157f6" font-family="Georgia, serif" font-style="italic" font-weight="600">Path</tspan></text>
  <text x="121" y="88" fill="#5b6473" font-family="Arial, Helvetica, sans-serif" font-size="10" font-weight="700" letter-spacing="2.1">MANAGED IT + CONNECTIVITY</text>
  <path d="M54 112h1092" fill="none" stroke="#111a2b" stroke-width="2"/>

  <rect x="56" y="153" width="9" height="9" fill="#c8f45a" stroke="#111a2b" stroke-width="1.5"/>
  <text x="79" y="163" fill="#3157f6" font-family="Arial, Helvetica, sans-serif" font-size="13" font-weight="800" letter-spacing="2.5">MANAGED IT FOR WESTERN NC</text>

  <text x="54" y="243" fill="#111a2b" font-family="Arial, Helvetica, sans-serif" font-size="66" font-weight="900" letter-spacing="-3.4">IT, under control.</text>
  <text x="54" y="313" fill="#111a2b" font-family="Arial, Helvetica, sans-serif" font-size="66" font-weight="900" letter-spacing="-3.4">Work keeps moving.</text>
  <text x="55" y="380" fill="#3157f6" font-family="Georgia, serif" font-size="58" font-style="italic">Stay connected.</text>

  <text x="57" y="453" fill="#3f4857" font-family="Arial, Helvetica, sans-serif" font-size="20">Microsoft 365 · Devices · Networks · Security · Support</text>
  <path d="M56 483h646" fill="none" stroke="#111a2b" stroke-opacity=".26"/>
  <text x="56" y="521" fill="#111a2b" font-family="Arial, Helvetica, sans-serif" font-size="15" font-weight="800">Managed IT first.</text>
  <text x="205" y="521" fill="#596170" font-family="Arial, Helvetica, sans-serif" font-size="15">Connectivity when it matters.</text>
  <text x="56" y="570" fill="#111a2b" font-family="Arial, Helvetica, sans-serif" font-size="22" font-weight="800">connect-path.com</text>

  <g transform="translate(750 150)">
    <rect width="396" height="420" fill="#111a2b"/>
    <rect x="14" y="14" width="368" height="392" fill="none" stroke="#f6f1e7" stroke-opacity=".22"/>
    <text x="36" y="56" fill="#c8f45a" font-family="Arial, Helvetica, sans-serif" font-size="12" font-weight="800" letter-spacing="2.2">THE CONNECTPATH IT REVIEW</text>
    <text x="36" y="96" fill="#f6f1e7" font-family="Georgia, serif" font-size="28">Start with what</text>
    <text x="36" y="130" fill="#f6f1e7" font-family="Georgia, serif" font-size="28">is already in place.</text>
    <g font-family="Arial, Helvetica, sans-serif" font-size="16" font-weight="700" fill="#f6f1e7">
      <rect x="36" y="167" width="9" height="9" fill="#c8f45a"/><text x="61" y="177">Microsoft 365 + access</text>
      <path d="M36 198h324" stroke="#f6f1e7" stroke-opacity=".18"/>
      <rect x="36" y="221" width="9" height="9" fill="#3157f6"/><text x="61" y="231">Devices + standards</text>
      <path d="M36 252h324" stroke="#f6f1e7" stroke-opacity=".18"/>
      <rect x="36" y="275" width="9" height="9" fill="#c8f45a"/><text x="61" y="285">Networks + connectivity</text>
      <path d="M36 306h324" stroke="#f6f1e7" stroke-opacity=".18"/>
      <rect x="36" y="329" width="9" height="9" fill="#3157f6"/><text x="61" y="339">Security + recovery</text>
    </g>
    <rect x="36" y="365" width="214" height="37" fill="#c8f45a"/>
    <text x="52" y="390" fill="#111a2b" font-family="Arial, Helvetica, sans-serif" font-size="16" font-weight="900" letter-spacing=".5">828.515.1530</text>
  </g>
</svg>
